<svg width="1170" height="716" viewBox="0 0 1170 716" fill="none" xmlns="http://www.w3.org/2000/svg">
<rect width="1170" height="716" fill="#FF7275"/>
<path d="M168.5 127.5C51.7 106.7 -32.8334 198.5 -60.5 247L-122 -27.5L1251.5 -40C1277.33 55.6667 1280.1 273.1 1084.5 377.5C888.9 481.9 642.333 381 543.5 317.5C467.167 262.833 285.3 148.3 168.5 127.5Z" fill="#FF8284"/>
<path d="M183.113 108.774C67.1548 83.7019 -20.6903 172.338 -50.1181 219.79L-101.504 -56.7819L1271.53 -18.8712C1293.84 77.679 1288.62 295.067 1089.32 392.219C890.023 489.371 647.325 379.491 550.888 312.407C476.612 254.976 299.071 133.846 183.113 108.774Z" fill="#FF7B7E"/>
</svg>
